<svg fill="none" height="143" viewBox="0 0 282 143" width="282" xmlns="http://www.w3.org/2000/svg"><path d="m254.78 18.036-120.988-6.1193h147.875v-11.9167h-167.08v25.1216 19.9685c0 .3221-4.801-29.3086-6.081-37.68244h-13.1234v21.90094 19.9684c0 .3221-5.7614-35.1058-6.0815-39.61484-33.2879 0-89.3011 0-89.3011 0 6.08144 5.15314 39.6894 34.13964 63.6951 46.05634 11.8428 5.7973 26.5663 6.1193 39.6889 6.4414 6.722.3221 13.444.6442 18.565 5.7973 7.362 7.0856 8.962 18.3581 2.56 26.732-6.081 8.3738-23.365 10.3068-23.365 10.3068l-14.7236 17.391v20.613h32.9676l.96-20.291 28.487-20.29c-2.88 2.576-9.922 9.018-19.844 24.799-2.241 3.543-4.161 7.408-5.442 11.273 7.042-6.119 21.765-10.306 39.049-10.306 16.964 0 31.688 4.187 38.73 10.306-1.281-3.865-3.201-7.73-5.442-11.273-10.242-15.781-16.964-22.223-19.844-24.799l28.486 20.29.961 20.291h30.727v-20.613l-14.404-17.714s-21.445-1.288-26.886-10.3059c-16.644-25.1216 6.082-64.4144 59.854-76.3311z" fill="#fff"/></svg>