<svg fill="none" xmlns="http://www.w3.org/2000/svg" viewBox="0 0 430 326">
    <path d="m430 130.356-10.942-7.863 3.335-7.716v-73.72L378.349 0H42.872L0 42.872v196.194l9.88 17.779H0v68.661h430v-68.661h-9.879L430 239.066v-108.71ZM93.24 239.066v-61.274H129l14.315-25.752v-50.864h13.142v137.89l9.879 17.779H83.361l9.879-17.779Zm146.834 17.779 9.88-17.779v-137.89h6.396v105.008l9.44 22.508 28.172 28.153h-53.888Z" fill="#fff"/>
    <path d="m410.057 124.985 5.059-11.713V44.227L375.489 7.275H45.877L7.276 45.876v191.301l11.309 20.364h56.068l11.31-20.364v-66.663h38.766l11.309-20.364V93.899h27.676v143.278l11.31 20.364h56.325l11.309-20.364V93.899h20.95v110.817l8.303 19.832 33.011 32.993h106.492l11.309-20.364V134.076l-12.666-9.091Z" fill="#322A2A"/>
    <path d="m67.8 158.876 6.525 75.277-6.525 11.749H25.44l-6.525-11.749 6.525-162.505 27.97-27.97h68.661l6.525 26.815-6.525 11.75H67.8v38.82h50.075l6.525 26.064-6.525 11.749H67.8Z" fill="#65ADB9"/>
    <path d="M262.693 82.26h-38.18l6.525 151.911-6.525 11.749h-42.615l-6.525-11.749 6.525-151.911h-39.591l-6.525-11.75 6.525-26.815h120.386l6.525 26.816-6.525 11.749Z" fill="#9FC41E"/>
    <path d="m404.559 161.661 6.526 72.51-6.526 11.749h-94.834l-27.97-27.97-6.526-15.561 6.526-158.675h86.568l28.63 26.687 6.525 40.489-6.525 15.14-19.869 15.928 27.475 19.722v-.019Zm-49.47-37.794V82.26h-30.958v41.607h30.958Zm6.855 83.727V161.68H324.15v45.914h37.794Z" fill="#E65014"/>
    <path d="M18.916 50.699v183.474h55.409v-87.027H124.4V96.301H74.325V70.512h54.272V18.916H50.699L18.916 50.699Z" fill="#0787C1"/>
    <path d="M135.764 70.512h39.591v163.661h55.665V70.513h38.198V18.915H135.764v51.596Z" fill="#798B2F"/>
    <path d="m387.879 123.373 15.598-12.518V49.287l-32.571-30.371h-95.659v183.456l31.801 31.782h104.054v-94.119l-23.204-16.68-.019.018Zm-57.223 59.423v-32.882h24.762v32.882h-24.762Zm0-83.727V70.512h17.907V99.07h-17.907Z" fill="#B11917"/>
    <path d="M67.799 140.62v87.026H25.44V53.392l27.97-27.97h68.661v38.564H67.799v38.821h50.075v37.795H67.799v.018ZM262.691 64.004h-38.179v163.642h-42.615V64.004h-39.591V25.439h120.385v38.565ZM404.559 143.405v84.241h-94.835l-27.97-27.97V25.44h86.568l28.63 26.687v55.61l-19.869 15.928 27.476 19.722v.018Zm-49.47-37.794V64.004h-30.958v41.607h30.958Zm6.855 83.727v-45.914h-37.795v45.914h37.795Z" fill="#fff"/>
    <path d="M422.723 264.121H7.276v54.107h415.447v-54.107Z" fill="#322A2A"/>
    <path d="M26.12 293.905v14.26h-6.948v-28.556l4.583-4.583h11.254v6.306h-8.89v6.396h8.212v6.196h-8.212v-.019ZM47.289 275.026h16.093v6.306h-9.22v6.396h8.761v6.196h-8.67v7.973h9.348v6.287H47.29v-33.158ZM75.534 275.026h16.093v6.306h-9.22v6.396h8.762v6.196h-8.67v7.973h9.348v6.287H75.534v-33.158ZM103.78 275.027h14.26l5.334 5.242v23.296l-4.656 4.583H103.78v-33.139.018Zm12.629 26.852v-20.547h-5.682v20.547h5.682ZM175.337 281.332h-6.25v26.833h-6.984v-26.833h-6.488v-6.306h19.722v6.306ZM194.471 288.645h5.957v-13.619h6.946v33.139h-6.946v-13.252h-5.957v13.252h-6.947v-33.139h6.947v13.619ZM219.729 275.026h16.092v6.306h-9.219v6.396h8.761v6.196h-8.669v7.973h9.347v6.287h-16.312v-33.158ZM288.17 294.364v13.801h-15.543l-4.582-4.582v-28.557h14.205l4.692 4.381v9.128l-3.262 2.621 4.472 3.226.018-.018Zm-8.083-6.196v-6.855h-5.095v6.855h5.095Zm1.118 13.71v-7.514h-6.213v7.514h6.213ZM300.488 275.026h16.093v6.306h-9.22v6.396h8.761v6.196h-8.669v7.973h9.348v6.287h-16.313v-33.158ZM335.696 308.165h-6.965v-27.879l5.334-5.242h14.48v33.139h-6.947v-10.888h-5.92v10.888l.018-.018Zm5.92-17.193v-9.641h-5.92v9.641h5.92ZM379.246 308.166h-18.219v-10.319h6.947v4.032h4.307V296.6l-11.015-8.321v-13.27h17.779v9.861h-6.305v-3.538h-4.546v4.326l11.052 8.303v14.205ZM411.359 281.332h-6.25v26.833h-6.983v-26.833h-6.489v-6.306h19.722v6.306Z" fill="#E0E0E0"/>
</svg>
