<svg fill="none" xmlns="http://www.w3.org/2000/svg" viewBox="0 0 256 158">
    <path d="M25.57 0 0 25.868v117.147l8.028 14.569h38.95l8.622-14.569v-36.571h21.408l8.623-14.867V60.655h7.73v82.36l7.731 14.569h39.247l8.92-15.164V60.655h3.271v62.439l5.946 13.677 20.813 20.813h68.088L256 143.015V77.9l-6.541-4.46 2.378-4.757V24.678L225.672 0H25.57Z" fill="#fff"/>
    <path d="m244.141 74.62 3.008-6.964V26.597L223.584 4.624H27.578L4.624 27.578v113.759l6.725 12.109h33.342l6.725-12.109v-39.642h23.052l6.725-12.11v-33.45h16.458v85.202l6.725 12.109h33.495l6.725-12.109V56.135h12.458v65.899l4.937 11.793 19.63 19.619h63.326l6.725-12.109v-61.31l-7.531-5.406Z" fill="#322A2A"/>
    <path d="m40.615 94.774 3.88 44.764-3.88 6.987H15.426l-3.88-6.987 3.88-96.635L32.06 26.27h40.83l3.88 15.947-3.88 6.986H40.614v23.085h29.777l3.88 15.5-3.88 6.986H40.615Z" fill="#65ADB9"/>
    <path d="M156.509 49.213h-22.703l3.88 90.335-3.88 6.987h-25.342l-3.88-6.987 3.88-90.335H84.921l-3.88-6.987 3.88-15.946h71.588l3.881 15.946-3.881 6.987Z" fill="#9FC41E"/>
    <path d="m240.871 96.431 3.881 43.119-3.881 6.986h-56.394l-16.632-16.632-3.881-9.254 3.881-94.357h51.478l17.025 15.87 3.88 24.077-3.88 9.003-11.815 9.471 16.338 11.728v-.01Zm-29.417-22.474V49.215h-18.41v24.742h18.41Zm4.076 49.789V96.442h-22.475v27.304h22.475Z" fill="#E65014"/>
    <path d="M11.546 30.446V139.55h32.95V87.799h29.777V57.564H44.495V42.228H76.77V11.546H30.446l-18.9 18.9Z" fill="#0787C1"/>
    <path d="M81.03 42.228h23.544v97.322h33.102V42.228h22.714V11.546H81.03v30.682Z" fill="#798B2F"/>
    <path d="m230.953 73.662 9.275-7.444V29.606l-19.368-18.06h-56.885v109.093l18.911 18.9h61.876v-55.97l-13.798-9.918-.011.011Zm-34.029 35.336V89.445h14.726v19.553h-14.726Zm0-49.789V42.228h10.649v16.981h-10.649Z" fill="#B11917"/>
    <path d="M40.614 83.918v51.751H15.426V32.048l16.632-16.633h40.83v22.933H40.614v23.085h29.778v22.475H40.614v.01ZM156.509 38.357h-22.704v97.311h-25.341v-97.31H84.921V15.424h71.588v22.932ZM240.871 85.574v50.094h-56.394l-16.633-16.632V15.425h51.479l17.025 15.87v33.069l-11.815 9.471 16.338 11.728v.011ZM211.453 63.1V38.357h-18.409V63.1h18.409Zm4.077 49.789V85.585h-22.475v27.303h22.475Z" fill="#fff"/>
</svg>
