<svg width="698" height="551" fill="none" xmlns="http://www.w3.org/2000/svg"><path fill-rule="evenodd" clip-rule="evenodd" d="M427.358 541.953v-8.979l5.537-.81c3.038-.473 9.789-1.216 14.92-1.823 5.131-.54 9.587-1.148 9.924-1.35.878-.541.811-320.082 0-320.622-.607-.405-5.131-1.013-22.954-3.038-2.836-.338-5.604-.608-6.279-.675-1.08 0-1.148-.945-1.148-9.115v-9.114h64.948c68.324 0 92.156.54 105.456 2.363 18.094 2.431 32.204 6.481 45.977 13.233 26.398 13.03 39.765 36.187 39.698 68.796-.135 25.183-8.237 43.209-26.128 57.521-8.574 6.954-21.604 14.381-28.76 16.474-2.093.607-4.186 1.35-4.726 1.62-1.958.945-9.79 3.241-13.031 3.713-3.578.54-5.941 1.891-4.86 2.836.337.337 2.633 1.148 5.063 1.823 6.954 1.823 15.798 4.591 16.541 5.131.337.27 1.89.877 3.375 1.35 3.714 1.148 17.959 8.304 22.482 11.275 23.9 15.595 36.66 32.879 42.196 57.251 2.431 10.532 3.039 24.035 1.756 36.863-2.836 27.343-14.718 48.204-35.917 62.922-2.498 1.688-4.861 3.173-5.199 3.173-.338 0-1.013.338-1.485.81-.54.473-3.173 1.891-5.941 3.106-2.836 1.283-6.077 2.701-7.224 3.173-1.148.54-2.363 1.013-2.566 1.013-.27 0-1.485.405-2.633.945-3.376 1.553-16.541 4.591-28.153 6.481-9.722 1.553-29.976 2.026-102.553 2.363l-78.316.338v-9.047Zm95.329-9.992a758.524 758.524 0 0 0-9.586-1.485l-5.064-.743-.203-83.514-.202-83.514 4.928-.405c9.722-.81 41.319-1.148 44.762-.473 1.823.405 6.414 1.08 10.127 1.485 6.616.743 14.853 2.701 18.971 4.456 1.148.473 2.498.946 2.903.946.945 0 5.469 1.957 11.207 4.861 15.529 7.831 29.099 21.199 34.905 34.296 6.144 13.976 7.966 23.022 7.899 40.441 0 28.423-6.414 47.799-20.322 61.235-16.135 15.528-43.006 23.224-81.556 23.224-7.831 0-16.271-.337-18.769-.81ZM509.05 342.923c-1.081-1.35-.945-136.714.135-137.39 1.147-.675 43.411-.945 49.825-.27 8.101.811 20.456 2.701 21.942 3.376.742.338 3.308.945 5.738 1.418 2.363.405 5.266 1.148 6.414 1.688 1.08.472 2.768 1.08 3.713 1.35 2.498.743 11.883 5.469 15.056 7.629 1.553 1.08 4.456 3.578 6.413 5.604 10.735 10.667 15.664 25.385 15.731 46.854 0 16.811-2.97 28.153-10.329 39.225-4.861 7.224-15.394 16.136-23.158 19.444-19.713 8.574-34.161 10.87-71.226 11.545-14.786.203-19.782.135-20.254-.473Z" fill="#BD3C31"/><path fill-rule="evenodd" clip-rule="evenodd" d="M0 541.953v-9.047l3.173-.405c1.755-.202 8.642-1.013 15.258-1.755 6.616-.743 12.288-1.553 12.625-1.755.878-.541.878-320.082 0-320.622-.607-.405-3.848-.81-24.507-3.173L0 204.453v-18.026l100.055-.202c88.51-.203 101-.405 108.224-1.351 7.292-1.012 17.419-3.24 23.9-5.198 1.62-.473 2.43-.473 2.768 0 .202.405 1.553 5.941 2.97 12.355 1.351 6.346 3.106 14.178 3.781 17.351.743 3.105 3.713 16.811 6.684 30.381 2.971 13.503 6.009 27.343 6.751 30.718 3.579 15.866 4.794 22.145 4.524 22.887-.27.743-5.334 1.823-13.03 2.769l-3.511.405-3.376-7.022c-16.608-34.904-39.225-60.019-65.555-72.847-7.089-3.375-13.3-5.806-17.216-6.616-1.891-.405-3.983-1.013-4.726-1.35-1.62-.811-11.207-2.566-18.566-3.444-5.064-.54-33.96-.675-45.774-.135l-6.28.27.203 74.4.203 74.4 13.84.203c21.739.27 32.069-1.216 41.386-6.212 11.005-5.738 18.364-19.038 24.71-44.288l1.823-7.089 8.236-.203 8.237-.202-.203 66.703-.135 66.703-8.101.135-8.102.203-1.62-6.617c-2.431-10.127-6.684-22.144-10.06-28.693-6.548-12.827-14.583-18.363-30.853-21.402-6.212-1.147-10.195-1.35-23.833-1.35H81.016v78.248c-.067 45.909.203 78.451.608 78.654.337.202 4.658.81 9.587 1.35 4.928.54 11.68 1.418 14.92 1.823l5.941.81V551H0v-9.047Z" fill="#658793"/><path fill-rule="evenodd" clip-rule="evenodd" d="M288.282 411.247c0-4.861.202-8.844.472-8.844.27 0 3.984-.473 8.304-.945 4.254-.541 11.005-1.283 14.988-1.756l7.292-.878V236.59c0-115.583-.27-162.303-.743-162.64-.405-.27-3.105-.135-5.941.27-2.835.405-7.696 1.08-10.802 1.485-3.038.405-7.899 1.485-10.802 2.363-4.861 1.62-14.921 6.144-15.596 7.089-.202.27-1.418 1.013-2.7 1.62-5.672 2.903-15.393 11.815-22.482 20.524-7.967 9.857-18.702 28.829-27.141 47.867l-1.89 4.254-3.443-.068c-1.891-.067-4.996-.27-6.819-.54-4.051-.54-3.916.068-1.823-11.882.743-4.456 2.025-11.68 2.768-16.068.743-4.389 2.025-11.41 2.768-15.664-13.638 78.316 46.247-266.07 5.401-31.056.743-4.32 1.89-11.207 2.633-15.393.743-4.186 1.823-10.33 2.363-13.57.54-3.308 1.08-6.144 1.215-6.211.135-.135 2.498.337 5.266 1.08 10.127 2.633 21.47 4.59 30.719 5.266 12.355.945 151.568.945 163.72.067 9.925-.742 19.917-2.43 29.301-5.063 3.308-.878 6.279-1.418 6.549-1.148.27.27.945 3.376 1.553 6.954.607 3.51 1.62 9.722 2.363 13.84.675 4.051 2.093 11.95 3.038 17.554 1.012 5.536 2.363 13.435 3.105 17.553 3.376 19.377 4.119 23.833 5.401 31.192a816.116 816.116 0 0 1 2.431 13.975c.54 3.308 1.148 6.279 1.283 6.549.607.945-1.418 1.553-7.697 2.295-5.468.675-6.346.608-6.819-.337-.27-.54-2.16-4.659-4.118-9.115-10.802-24.034-22.009-40.98-35.715-53.875-11.004-10.33-27.073-18.297-40.575-20.052-2.971-.405-7.832-1.013-10.87-1.418-3.106-.405-5.739-.472-6.076-.135-.338.338-.473 70.619-.405 162.573l.202 162.032 6.077.743c3.308.405 9.114 1.08 12.827 1.485 3.713.473 7.832.945 9.249 1.215l2.566.338V420.024H288.282v-8.777Z" fill="#8ACB31"/></svg>