<svg fill="none" viewBox="0 0 430 326" xmlns="http://www.w3.org/2000/svg"><path d="m430 130.356-10.942-7.863 3.335-7.716v-73.72l-44.044-41.057h-335.477l-42.872 42.872v196.194l9.88 17.779h-9.88v68.661h430v-68.661h-9.879l9.879-17.779zm-336.76 108.71v-61.274h35.76l14.315-25.752v-50.864h13.142v137.89l9.879 17.779h-82.975zm146.834 17.779 9.88-17.779v-137.89h6.396v105.008l9.44 22.508 28.172 28.153z" fill="#fff"/><path d="m410.057 124.985 5.059-11.713v-69.045l-39.627-36.952h-329.612l-38.601 38.601v191.301l11.309 20.364h56.068l11.31-20.364v-66.663h38.766l11.309-20.364v-56.251h27.676v143.278l11.31 20.364h56.325l11.309-20.364v-143.278h20.95v110.817l8.303 19.832 33.011 32.993h106.492l11.309-20.364v-103.101z" fill="#322a2a"/><path d="m67.8 158.876 6.525 75.277-6.525 11.749h-42.36l-6.525-11.749 6.525-162.505 27.97-27.97h68.661l6.525 26.815-6.525 11.75h-54.271v38.82h50.075l6.525 26.064-6.525 11.749z" fill="#65adb9"/><path d="m262.693 82.26h-38.18l6.525 151.911-6.525 11.749h-42.615l-6.525-11.749 6.525-151.911h-39.591l-6.525-11.75 6.525-26.815h120.386l6.525 26.816z" fill="#9fc41e"/><path d="m404.559 161.661 6.526 72.51-6.526 11.749h-94.834l-27.97-27.97-6.526-15.561 6.526-158.675h86.568l28.63 26.687 6.525 40.489-6.525 15.14-19.869 15.928 27.475 19.722zm-49.47-37.794v-41.607h-30.958v41.607zm6.855 83.727v-45.914h-37.794v45.914z" fill="#e65014"/><path d="m18.916 50.699v183.474h55.409v-87.027h50.075v-50.845h-50.075v-25.789h54.272v-51.596h-77.898z" fill="#0787c1"/><path d="m135.764 70.512h39.591v163.661h55.665v-163.66h38.198v-51.598h-133.454v51.596z" fill="#798b2f"/><path d="m387.879 123.373 15.598-12.518v-61.568l-32.571-30.371h-95.659v183.456l31.801 31.782h104.054v-94.119l-23.204-16.68zm-57.223 59.423v-32.882h24.762v32.882zm0-83.727v-28.557h17.907v28.558h-17.907z" fill="#b11917"/><path d="m67.799 140.62v87.026h-42.359v-174.254l27.97-27.97h68.661v38.564h-54.272v38.821h50.075v37.795h-50.075zm194.892-76.616h-38.179v163.642h-42.615v-163.642h-39.591v-38.565h120.385zm141.868 79.401v84.241h-94.835l-27.97-27.97v-174.236h86.568l28.63 26.687v55.61l-19.869 15.928 27.476 19.722zm-49.47-37.794v-41.607h-30.958v41.607zm6.855 83.727v-45.914h-37.795v45.914z" fill="#fff"/><path d="m422.723 264.121h-415.447v54.107h415.447z" fill="#322a2a"/><path d="m26.12 293.905v14.26h-6.948v-28.556l4.583-4.583h11.254v6.306h-8.89v6.396h8.212v6.196h-8.212v-.019zm21.169-18.879h16.093v6.306h-9.22v6.396h8.761v6.196h-8.67v7.973h9.348v6.287h-16.311v-33.158zm28.245 0h16.093v6.306h-9.22v6.396h8.762v6.196h-8.67v7.973h9.348v6.287h-16.313zm28.246.001h14.26l5.334 5.242v23.296l-4.656 4.583h-14.938v-33.139zm12.629 26.852v-20.547h-5.682v20.547zm58.928-20.547h-6.25v26.833h-6.984v-26.833h-6.488v-6.306h19.722zm19.134 7.313h5.957v-13.619h6.946v33.139h-6.946v-13.252h-5.957v13.252h-6.947v-33.139h6.947zm25.258-13.619h16.092v6.306h-9.219v6.396h8.761v6.196h-8.669v7.973h9.347v6.287h-16.312zm68.441 19.338v13.801h-15.543l-4.582-4.582v-28.557h14.205l4.692 4.381v9.128l-3.262 2.621 4.472 3.226zm-8.083-6.196v-6.855h-5.095v6.855zm1.118 13.71v-7.514h-6.213v7.514zm19.283-26.852h16.093v6.306h-9.22v6.396h8.761v6.196h-8.669v7.973h9.348v6.287h-16.313zm35.208 33.139h-6.965v-27.879l5.334-5.242h14.48v33.139h-6.947v-10.888h-5.92v10.888zm5.92-17.193v-9.641h-5.92v9.641zm37.63 17.194h-18.219v-10.319h6.947v4.032h4.307v-5.279l-11.015-8.321v-13.27h17.779v9.861h-6.305v-3.538h-4.546v4.326l11.052 8.303zm32.113-26.834h-6.25v26.833h-6.983v-26.833h-6.489v-6.306h19.722z" fill="#e0e0e0"/></svg>