<svg xmlns="http://www.w3.org/2000/svg" viewBox="0 0 29 29"><path d="M0 0h7v7H0zm9 0h1v1H9zm2 0h2v1h2V0h1v2h-1v1h-1V2h-3v1h3v1H9V3h1V1h1zm7 0h1v1h-1zm4 0h7v7h-7zM1 1v5h5V1zm16 0h1v1h1v1h-2zm2 0h2v3h-2V3h1V2h-1zm4 0v5h5V1zM2 2h3v3H2zm6 0h1v1H8zm16 0h3v3h-3zm-9 1h1v1h-1zM8 4h1v1h2v2h1V6h1v1h1v1h-4v1H8V8h1V7h1V6H9v1H8zm6 0h1v1h2v2h1V5h-1V4h2v1h1v1h-1v1h1V6h1v2h1v1h-3V8h-1v1h1v2h-1v-1h-1v1h1v2h1v2h-1v-1h-1v-2h-3v1h-1v-1h-2v-1h2v-1h1v1h2V8h-1V7h1V6h-1v1h-1zM1 8h1v1h2v1H3v1H2v-1H0V9h1zm3 0h1v1H4zm2 0h1v1H6zm17 0h2v1h1V8h1v1h2v6h-1v-1h-2v-1h2v-1h-1v-1h1v-1h-1v1h-1v2h-1v-1h-1v-1h-1v-1h-1V9h1zM5 9h1v1H5zm6 0h2v1h-2zm3 0h1v1h-1zM4 10h1v2H4zm2 0h1v1H6zm2 0h1v1h1v3h1v2h-1v-1H9v1H8v1H6v1H5v-2h2v-1h1v-1h1v-1H8v-1H7v-1h1zm2 0h1v1h-1zm10 0h2v2h-3v-1h1zM0 12h2v1H1v1H0zm6 0h1v1H6zm17 0h1v1h-1zM2 13h1v1H2zm2 0h1v1H4zm3 0h1v1H7zm4 0h2v2h1v1h1v-1h1v-1h1v1h1v2h1v3h-1v1h1v1h-3v1h-1v3h-1v-1h-3v-1h1v-1h2v-1h1v-1h1v-1h-2v-1h1v-1h1v1h1v-2h-4v-1h-1v-2h-1zm3 0h1v2h-1zm8 0h1v2h-2v1h1v1h-1v3h4v-2h2v1h-1v2h-1v2h1v1h-1v1h-1v1h-1v-1h-4v1h-1v1h1v1h-1v1h-1v-2h-1v-2h2v-1h-2v-1h3v-1h1v-5h-1v-2h1v-1h2zm2 0h1v2h-1zM1 14h1v1h1v-1h1v1h1v1H3v1H2v-1H1zm5 0h1v1H6zm17 1h1v1h-1zm2 0h1v1h-1zM0 16h1v1h1v1H0zm27 0h2v3h-1v-2h-1zM3 17h1v2H2v-1h1zm5 0h3v2H8zm14 0h1v1h-1zm2 0h1v1h-1zM6 18h1v1H6zm7 0h1v1h-1zm10 0h1v1h-1zM4 19h2v1h1v1H4zm7 0h1v1h-1zm16 0h1v1h1v3h-1v-2h-1zM0 20h2v1H0zm8 0h1v1h3v2h-1v-1H8zm4 0h2v2h-1v-1h-1zm9 1v3h3v-3zm5 0h1v1h-1zM0 22h7v7H0zm22 0h1v1h-1zM1 23v5h5v-5zm8 0h2v1H9zm18 0h1v1h-1zM2 24h3v3H2zm6 0h1v1H8zm18 1h2v1h1v2h-1v1h-1v-2h-1zM9 26h3v1h-1v2h-1v-1H8v-1h1zm10 0h3v1h-1v1h2v1h-3v-2h-1zm-5 1h1v1h-1zm9 0h1v1h-1zm2 0h1v1h-1zm-13 1h1v1h-1zm3 0h1v1h-1zm9 0h1v1h-1z"/></svg>