<svg viewBox="0 0 95 95" fill="none" xmlns="http://www.w3.org/2000/svg">
    <path d="M21.3249 8.05952C21.3252 8.5046 21.5021 8.93138 21.8167 9.24619C22.1313 9.56101 22.5579 9.73815 23.003 9.73873H25.8622V16.1168H23.003C22.5653 16.1281 22.1492 16.3098 21.8435 16.6234C21.5379 16.937 21.3668 17.3576 21.3668 17.7955C21.3668 18.2334 21.5379 18.654 21.8435 18.9676C22.1492 19.2812 22.5653 19.463 23.003 19.4742H25.8622V24.3677C25.8623 24.5631 25.824 24.7565 25.7493 24.937C25.6747 25.1175 25.5652 25.2816 25.4271 25.4197C25.289 25.5579 25.1251 25.6675 24.9446 25.7423C24.7642 25.8171 24.5707 25.8556 24.3754 25.8556H19.4819V22.9964C19.4819 22.5511 19.3049 22.124 18.99 21.809C18.6751 21.4941 18.248 21.3172 17.8027 21.3172C17.3573 21.3172 16.9302 21.4941 16.6153 21.809C16.3004 22.124 16.1234 22.5511 16.1234 22.9964V25.8556H9.74533V22.9964C9.75106 22.7724 9.71188 22.5494 9.6301 22.3407C9.54832 22.1321 9.42559 21.9419 9.26914 21.7814C9.1127 21.6209 8.92571 21.4933 8.71919 21.4062C8.51267 21.3191 8.2908 21.2742 8.06667 21.2742C7.84254 21.2742 7.62067 21.3191 7.41416 21.4062C7.20764 21.4933 7.02064 21.6209 6.8642 21.7814C6.70775 21.9419 6.58502 22.1321 6.50324 22.3407C6.42146 22.5494 6.38228 22.7724 6.38802 22.9964V25.8556H1.48786C1.09334 25.8553 0.715071 25.6984 0.436106 25.4195C0.157141 25.1405 0.000291263 24.7622 0 24.3677V1.48786C0 1.09326 0.156756 0.714813 0.435784 0.435784C0.714813 0.156756 1.09326 0 1.48786 0H24.371C24.5664 -5.34319e-08 24.7598 0.0384927 24.9402 0.113278C25.1207 0.188064 25.2846 0.297676 25.4227 0.435851C25.5608 0.574026 25.6703 0.738056 25.7449 0.918565C25.8196 1.09907 25.8579 1.29252 25.8578 1.48786V6.37922H22.9986C22.554 6.38068 22.1282 6.55838 21.8144 6.87338C21.5007 7.18837 21.3246 7.61493 21.3249 8.05952Z" fill="#9722FF"/>
    <path d="M50.5411 8.05952C50.5411 8.50469 50.7179 8.93163 51.0325 9.24651C51.3472 9.56139 51.774 9.73844 52.2192 9.73873H55.0784V16.1168H52.2192C51.7814 16.1281 51.3654 16.3098 51.0597 16.6234C50.754 16.937 50.583 17.3576 50.583 17.7955C50.583 18.2334 50.754 18.654 51.0597 18.9676C51.3654 19.2812 51.7814 19.463 52.2192 19.4742H55.0784V24.3677C55.0784 24.7621 54.9218 25.1404 54.643 25.4194C54.3642 25.6984 53.986 25.8553 53.5916 25.8556H30.7041C30.5087 25.8556 30.3153 25.8171 30.1348 25.7423C29.9544 25.6675 29.7904 25.5579 29.6524 25.4197C29.5143 25.2816 29.4048 25.1175 29.3301 24.937C29.2555 24.7565 29.2171 24.5631 29.2173 24.3677V19.4742H32.0698C32.2939 19.4799 32.5168 19.4407 32.7255 19.3589C32.9342 19.2772 33.1244 19.1544 33.2849 18.998C33.4454 18.8415 33.573 18.6545 33.6601 18.448C33.7471 18.2415 33.792 18.0196 33.792 17.7955C33.792 17.5714 33.7471 17.3495 33.6601 17.143C33.573 16.9365 33.4454 16.7495 33.2849 16.593C33.1244 16.4366 32.9342 16.3139 32.7255 16.2321C32.5168 16.1503 32.2939 16.1111 32.0698 16.1168H29.2173V9.73873H32.0698C32.2941 9.74447 32.5171 9.70526 32.7259 9.62343C32.9348 9.54159 33.1251 9.41878 33.2857 9.26223C33.4463 9.10568 33.5739 8.91857 33.6611 8.71191C33.7482 8.50526 33.7931 8.28325 33.7931 8.05898C33.7931 7.8347 33.7482 7.61269 33.6611 7.40603C33.5739 7.19938 33.4463 7.01227 33.2857 6.85572C33.1251 6.69917 32.9348 6.57636 32.7259 6.49452C32.5171 6.41269 32.2941 6.37348 32.0698 6.37922H29.2173V1.48786C29.217 1.29248 29.2552 1.09897 29.3298 0.918394C29.4044 0.73782 29.5139 0.573733 29.652 0.435529C29.7901 0.297325 29.9541 0.187718 30.1347 0.112984C30.3152 0.0382495 30.5087 -0.000144423 30.7041 4.08229e-07H53.5872C53.7825 3.54797e-07 53.976 0.0384931 54.1564 0.113279C54.3369 0.188064 54.5008 0.297677 54.6389 0.435852C54.777 0.574027 54.8865 0.738056 54.9611 0.918565C55.0358 1.09907 55.0741 1.29252 55.074 1.48786V6.37922H52.2148C51.7702 6.38068 51.3443 6.55839 51.0306 6.87338C50.7168 7.18837 50.5408 7.61493 50.5411 8.05952Z" fill="#DC29DD"/>
    <path d="M84.2892 1.48786V24.3699C84.2893 24.5652 84.251 24.7587 84.1763 24.9392C84.1017 25.1197 83.9922 25.2837 83.8541 25.4219C83.716 25.5601 83.5521 25.6697 83.3716 25.7445C83.1912 25.8193 82.9977 25.8578 82.8024 25.8578H77.9089V22.9986C77.9146 22.7746 77.8754 22.5516 77.7936 22.3429C77.7118 22.1343 77.5891 21.9441 77.4327 21.7836C77.2762 21.6231 77.0892 21.4955 76.8827 21.4084C76.6762 21.3213 76.4543 21.2764 76.2302 21.2764C76.0061 21.2764 75.7842 21.3213 75.5777 21.4084C75.3712 21.4955 75.1842 21.6231 75.0277 21.7836C74.8713 21.9441 74.7485 22.1343 74.6668 22.3429C74.585 22.5516 74.5458 22.7746 74.5515 22.9986V25.8578H68.1734V22.9986C68.1792 22.7746 68.14 22.5516 68.0582 22.3429C67.9764 22.1343 67.8537 21.9441 67.6972 21.7836C67.5408 21.6231 67.3538 21.4955 67.1473 21.4084C66.9408 21.3213 66.7189 21.2764 66.4948 21.2764C66.2706 21.2764 66.0488 21.3213 65.8422 21.4084C65.6357 21.4955 65.4487 21.6231 65.2923 21.7836C65.1359 21.9441 65.0131 22.1343 64.9313 22.3429C64.8496 22.5516 64.8104 22.7746 64.8161 22.9986V25.8578H59.9226C59.528 25.8575 59.1498 25.7006 58.8708 25.4217C58.5918 25.1427 58.435 24.7644 58.4347 24.3699V19.4764H61.2938C61.5179 19.4821 61.7408 19.4429 61.9495 19.3611C62.1582 19.2794 62.3484 19.1566 62.5089 19.0002C62.6694 18.8437 62.797 18.6567 62.8841 18.4502C62.9712 18.2437 63.016 18.0218 63.016 17.7977C63.016 17.5736 62.9712 17.3517 62.8841 17.1452C62.797 16.9387 62.6694 16.7517 62.5089 16.5952C62.3484 16.4388 62.1582 16.3161 61.9495 16.2343C61.7408 16.1525 61.5179 16.1133 61.2938 16.119H58.4347V9.74093H61.2938C61.7319 9.72972 62.1483 9.54783 62.4541 9.23403C62.76 8.92024 62.9312 8.49937 62.9312 8.06117C62.9312 7.62297 62.76 7.20211 62.4541 6.88831C62.1483 6.57452 61.7319 6.39263 61.2938 6.38142H58.4347V1.48786C58.4347 1.09326 58.5914 0.714813 58.8705 0.435784C59.1495 0.156756 59.528 0 59.9226 0H82.8024C82.9977 -5.34319e-08 83.1912 0.0384927 83.3716 0.113278C83.5521 0.188064 83.716 0.297676 83.8541 0.435851C83.9922 0.574026 84.1017 0.738055 84.1763 0.918565C84.251 1.09907 84.2893 1.29252 84.2892 1.48786Z" fill="#27A2FD"/>
    <path d="M25.8578 30.7016V53.5848C25.8579 53.7801 25.8196 53.9735 25.7449 54.1541C25.6703 54.3346 25.5608 54.4986 25.4227 54.6368C25.2846 54.7749 25.1207 54.8846 24.9402 54.9593C24.7598 55.0341 24.5664 55.0726 24.371 55.0726H19.4775V52.2135C19.4775 51.7681 19.3005 51.341 18.9856 51.0261C18.6707 50.7112 18.2436 50.5343 17.7983 50.5343C17.3529 50.5343 16.9258 50.7112 16.6109 51.0261C16.296 51.341 16.119 51.7681 16.119 52.2135V55.0726H9.74093V52.2135C9.74666 51.9894 9.70748 51.7665 9.6257 51.5578C9.54392 51.3491 9.42119 51.1589 9.26475 50.9984C9.1083 50.8379 8.92131 50.7104 8.71479 50.6233C8.50827 50.5362 8.2864 50.4913 8.06227 50.4913C7.83814 50.4913 7.61628 50.5362 7.40976 50.6233C7.20324 50.7104 7.01625 50.8379 6.8598 50.9984C6.70336 51.1589 6.58062 51.3491 6.49884 51.5578C6.41706 51.7665 6.37788 51.9894 6.38362 52.2135V55.0726H1.48786C1.09326 55.0726 0.714813 54.9159 0.435784 54.6368C0.156756 54.3578 0 53.9794 0 53.5848V30.7016C0.000582353 30.3073 0.157561 29.9293 0.436494 29.6506C0.715428 29.3718 1.09354 29.2151 1.48786 29.2148H6.38142V32.074C6.39262 32.5118 6.5744 32.9278 6.88799 33.2335C7.20157 33.5392 7.62216 33.7102 8.06007 33.7102C8.49799 33.7102 8.91857 33.5392 9.23216 33.2335C9.54575 32.9278 9.72752 32.5118 9.73873 32.074V29.2148H16.1168V32.074C16.1168 32.5194 16.2938 32.9465 16.6087 33.2614C16.9236 33.5763 17.3507 33.7532 17.7961 33.7532C18.2414 33.7532 18.6685 33.5763 18.9834 33.2614C19.2983 32.9465 19.4753 32.5194 19.4753 32.074V29.2148H24.3688C24.5642 29.2146 24.7578 29.2528 24.9384 29.3274C25.1191 29.402 25.2832 29.5114 25.4215 29.6495C25.5598 29.7876 25.6695 29.9516 25.7444 30.1321C25.8192 30.3127 25.8578 30.5062 25.8578 30.7016Z" fill="#DC29DD"/>
    <path d="M50.5411 37.2744C50.541 37.4948 50.5843 37.7131 50.6685 37.9167C50.7528 38.1204 50.8764 38.3054 51.0323 38.4613C51.1881 38.6171 51.3732 38.7407 51.5768 38.825C51.7805 38.9093 51.9988 38.9526 52.2192 38.9525H55.0784V45.3306H52.2192C51.7814 45.3418 51.3654 45.5236 51.0597 45.8372C50.754 46.1507 50.583 46.5713 50.583 47.0092C50.583 47.4472 50.754 47.8677 51.0597 48.1813C51.3654 48.4949 51.7814 48.6767 52.2192 48.6879H55.0784V53.5815C55.0785 53.7768 55.0402 53.9702 54.9655 54.1508C54.8909 54.3313 54.7814 54.4953 54.6433 54.6335C54.5052 54.7716 54.3413 54.8813 54.1608 54.956C53.9804 55.0308 53.7869 55.0693 53.5916 55.0693H48.6892V52.2102C48.695 51.9861 48.6558 51.7632 48.574 51.5545C48.4922 51.3458 48.3695 51.1556 48.2131 50.9951C48.0566 50.8346 47.8696 50.707 47.6631 50.62C47.4566 50.5329 47.2347 50.488 47.0106 50.488C46.7865 50.488 46.5646 50.5329 46.3581 50.62C46.1516 50.707 45.9646 50.8346 45.8081 50.9951C45.6517 51.1556 45.5289 51.3458 45.4472 51.5545C45.3654 51.7632 45.3262 51.9861 45.3319 52.2102V55.0693H38.9538V52.2102C38.9538 51.7648 38.7769 51.3377 38.462 51.0228C38.1471 50.7079 37.72 50.531 37.2746 50.531C36.8293 50.531 36.4021 50.7079 36.0872 51.0228C35.7723 51.3377 35.5954 51.7648 35.5954 52.2102V55.0693H30.7041C30.5087 55.0695 30.3152 55.0311 30.1347 54.9563C29.9541 54.8816 29.7901 54.772 29.652 54.6338C29.5139 54.4956 29.4044 54.3315 29.3298 54.1509C29.2552 53.9704 29.217 53.7768 29.2173 53.5815V30.7016C29.2173 30.3073 29.3739 29.9291 29.6528 29.6503C29.9316 29.3715 30.3097 29.2148 30.7041 29.2148H53.5872C53.9814 29.2151 54.3594 29.3719 54.6382 29.6506C54.9169 29.9294 55.0737 30.3074 55.074 30.7016V35.5952H52.2148C51.7703 35.5963 51.3444 35.7738 51.0307 36.0886C50.7169 36.4034 50.5408 36.8299 50.5411 37.2744Z" fill="#27A2FD"/>
    <path d="M84.289 30.7016V53.5848C84.2892 53.7801 84.2508 53.9735 84.1762 54.1541C84.1015 54.3346 83.992 54.4986 83.854 54.6368C83.7159 54.7749 83.552 54.8846 83.3715 54.9593C83.191 55.0341 82.9976 55.0726 82.8023 55.0726H59.9191C59.5245 55.0726 59.1461 54.9159 58.8671 54.6368C58.588 54.3578 58.4313 53.9794 58.4313 53.5848V48.6879H61.2904C61.5145 48.6936 61.7374 48.6545 61.9461 48.5727C62.1548 48.4909 62.345 48.3682 62.5055 48.2117C62.666 48.0553 62.7935 47.8683 62.8806 47.6618C62.9677 47.4552 63.0126 47.2334 63.0126 47.0092C63.0126 46.7851 62.9677 46.5633 62.8806 46.3567C62.7935 46.1502 62.666 45.9632 62.5055 45.8068C62.345 45.6503 62.1548 45.5276 61.9461 45.4458C61.7374 45.364 61.5145 45.3249 61.2904 45.3306H58.4313V38.9525H61.2904C61.5145 38.9582 61.7374 38.919 61.9461 38.8372C62.1548 38.7555 62.345 38.6327 62.5055 38.4763C62.666 38.3198 62.7935 38.1329 62.8806 37.9263C62.9677 37.7198 63.0126 37.498 63.0126 37.2738C63.0126 37.0497 62.9677 36.8278 62.8806 36.6213C62.7935 36.4148 62.666 36.2278 62.5055 36.0713C62.345 35.9149 62.1548 35.7922 61.9461 35.7104C61.7374 35.6286 61.5145 35.5894 61.2904 35.5952H58.4313V30.7016C58.4319 30.3073 58.5888 29.9293 58.8678 29.6506C59.1467 29.3718 59.5248 29.2151 59.9191 29.2148H64.8127V32.074C64.8239 32.5118 65.0057 32.9278 65.3193 33.2335C65.6328 33.5392 66.0534 33.7102 66.4913 33.7102C66.9293 33.7102 67.3498 33.5392 67.6634 33.2335C67.977 32.9278 68.1588 32.5118 68.17 32.074V29.2148H74.5481V32.074C74.5593 32.5118 74.7411 32.9278 75.0547 33.2335C75.3683 33.5392 75.7889 33.7102 76.2268 33.7102C76.6647 33.7102 77.0853 33.5392 77.3989 33.2335C77.7125 32.9278 77.8942 32.5118 77.9054 32.074V29.2148H82.799C82.9945 29.2144 83.1882 29.2525 83.369 29.3271C83.5497 29.4016 83.714 29.511 83.8524 29.6491C83.9908 29.7872 84.1006 29.9513 84.1756 30.1319C84.2505 30.3125 84.289 30.5061 84.289 30.7016Z" fill="#3344FF"/>
    <path d="M21.3249 66.4912C21.3252 66.9362 21.5021 67.363 21.8167 67.6778C22.1313 67.9927 22.5579 68.1698 23.003 68.1704H25.8622V74.5485H23.003C22.5577 74.5485 22.1306 74.7254 21.8156 75.0403C21.5007 75.3552 21.3238 75.7823 21.3238 76.2277C21.3238 76.6731 21.5007 77.1002 21.8156 77.4151C22.1306 77.73 22.5577 77.9069 23.003 77.9069H25.8622V82.8005C25.8623 82.9958 25.824 83.1892 25.7493 83.3698C25.6747 83.5503 25.5652 83.7143 25.4271 83.8525C25.289 83.9906 25.1251 84.1003 24.9446 84.175C24.7642 84.2498 24.5707 84.2883 24.3754 84.2883H1.48786C1.09334 84.288 0.715071 84.1312 0.436106 83.8522C0.157141 83.5733 0.000291263 83.195 0 82.8005V59.9195C0 59.5249 0.156756 59.1465 0.435784 58.8674C0.714813 58.5884 1.09326 58.4316 1.48786 58.4316H6.38142V61.2853C6.37568 61.5094 6.41486 61.7323 6.49664 61.941C6.57843 62.1497 6.70116 62.3399 6.8576 62.5004C7.01405 62.6609 7.20104 62.7884 7.40756 62.8755C7.61408 62.9626 7.83594 63.0075 8.06007 63.0075C8.28421 63.0075 8.50607 62.9626 8.71259 62.8755C8.91911 62.7884 9.1061 62.6609 9.26255 62.5004C9.41899 62.3399 9.54172 62.1497 9.6235 61.941C9.70529 61.7323 9.74446 61.5094 9.73873 61.2853V58.4316H16.1168V61.2853C16.1168 61.7307 16.2938 62.1578 16.6087 62.4727C16.9236 62.7876 17.3507 62.9645 17.7961 62.9645C18.2414 62.9645 18.6685 62.7876 18.9834 62.4727C19.2983 62.1578 19.4753 61.7307 19.4753 61.2853V58.4316H24.3688C24.5642 58.4316 24.7576 58.4701 24.938 58.5449C25.1185 58.6197 25.2824 58.7293 25.4205 58.8675C25.5586 59.0057 25.6681 59.1697 25.7427 59.3502C25.8174 59.5307 25.8557 59.7242 25.8556 59.9195V64.8109H22.9964C22.5523 64.8132 22.1272 64.9912 21.8139 65.3061C21.5007 65.621 21.3249 66.047 21.3249 66.4912Z" fill="#9722FF"/>
    <path d="M55.074 59.9195V82.8016C55.074 83.196 54.9174 83.5743 54.6386 83.8533C54.3598 84.1322 53.9816 84.2891 53.5872 84.2894H30.7041C30.5087 84.2894 30.3153 84.2509 30.1348 84.1761C29.9544 84.1014 29.7904 83.9917 29.6524 83.8536C29.5143 83.7154 29.4048 83.5514 29.3301 83.3709C29.2555 83.1904 29.2171 82.9969 29.2173 82.8016V77.908H32.0698C32.2904 77.908 32.5087 77.8646 32.7124 77.7802C32.9162 77.6958 33.1013 77.5721 33.2572 77.4162C33.4132 77.2603 33.5368 77.0751 33.6212 76.8714C33.7056 76.6677 33.7491 76.4493 33.7491 76.2288C33.7491 76.0083 33.7056 75.7899 33.6212 75.5862C33.5368 75.3825 33.4132 75.1973 33.2572 75.0414C33.1013 74.8855 32.9162 74.7618 32.7124 74.6774C32.5087 74.593 32.2904 74.5496 32.0698 74.5496H29.2173V68.1715H32.0698C32.2941 68.1772 32.5171 68.138 32.726 68.0562C32.9348 67.9743 33.1251 67.8515 33.2857 67.695C33.4463 67.5384 33.5739 67.3513 33.6611 67.1447C33.7482 66.938 33.7931 66.716 33.7931 66.4917C33.7931 66.2674 33.7482 66.0454 33.6611 65.8388C33.5739 65.6321 33.4463 65.445 33.2857 65.2885C33.1251 65.1319 32.9348 65.0091 32.726 64.9273C32.5171 64.8454 32.2941 64.8062 32.0698 64.812H29.2173V59.9195C29.217 59.7241 29.2552 59.5306 29.3298 59.35C29.4044 59.1695 29.5139 59.0054 29.652 58.8672C29.7901 58.729 29.9541 58.6194 30.1347 58.5446C30.3152 58.4699 30.5087 58.4315 30.7041 58.4316H35.5965V61.2853C35.5965 61.5058 35.6399 61.7242 35.7243 61.9279C35.8087 62.1316 35.9324 62.3168 36.0883 62.4727C36.2443 62.6286 36.4294 62.7523 36.6331 62.8367C36.8368 62.9211 37.0552 62.9645 37.2757 62.9645C37.4962 62.9645 37.7146 62.9211 37.9183 62.8367C38.122 62.7523 38.3072 62.6286 38.4631 62.4727C38.619 62.3168 38.7427 62.1316 38.8271 61.9279C38.9115 61.7242 38.9549 61.5058 38.9549 61.2853V58.4316H45.333V61.2853C45.3273 61.5094 45.3665 61.7323 45.4483 61.941C45.53 62.1497 45.6528 62.3399 45.8092 62.5004C45.9657 62.6609 46.1527 62.7884 46.3592 62.8755C46.5657 62.9626 46.7876 63.0075 47.0117 63.0075C47.2358 63.0075 47.4577 62.9626 47.6642 62.8755C47.8707 62.7884 48.0577 62.6609 48.2142 62.5004C48.3706 62.3399 48.4933 62.1497 48.5751 61.941C48.6569 61.7323 48.6961 61.5094 48.6903 61.2853V58.4316H53.5839C53.7795 58.4312 53.9733 58.4694 54.1541 58.544C54.335 58.6186 54.4993 58.7281 54.6377 58.8663C54.7761 59.0045 54.8859 59.1687 54.9608 59.3494C55.0357 59.5302 55.0741 59.7239 55.074 59.9195Z" fill="#3344FF"/>
    <path d="M75.6638 59.4817L59.4837 75.6618C58.9027 76.2428 58.9027 77.1849 59.4837 77.7659L75.6638 93.946C76.2448 94.527 77.1869 94.527 77.7679 93.946L93.948 77.7659C94.529 77.1849 94.529 76.2428 93.948 75.6618L77.7679 59.4817C77.1869 58.9007 76.2448 58.9007 75.6638 59.4817Z" fill="#9722FF"/>
</svg>
