<svg width="132" height="266" viewBox="0 0 132 266" fill="none" xmlns="http://www.w3.org/2000/svg">
  <path d="M79.4286 226.557L105.604 239.781V196.36L79.4286 209.466V226.556V226.557Z" fill="#0E6939"/>
  <path d="M105.603 170.032V196.36L131.779 183.253L105.603 170.032Z" fill="#0F6B3A"/>
  <path d="M105.603 196.359L131.779 183.253V226.668L105.603 239.78V196.359V196.359Z" fill="#13A650"/>
  <path d="M0.915192 196.14L53.2591 222.58V265.995L0.915192 239.555V196.14V196.14Z" fill="#8DC641"/>
  <path d="M53.2592 222.58L79.4297 209.466V252.885L53.2601 265.995V222.58H53.2592Z" fill="#2BB673"/>
  <path d="M27.0897 183.027L79.4296 209.466L53.2601 222.58L0.915192 196.14L27.0886 183.027H27.0897Z" fill="#13A650"/>
  <path d="M27.0897 98.6633L66.3488 118.329L79.4296 111.775V209.467L27.0886 183.026V98.6633H27.0897Z" fill="#0E6939"/>
  <path d="M79.4286 111.775L105.603 98.6633V196.358L79.4286 209.466V111.775ZM14.0099 26.7538V92.1125L66.3488 118.329V53.1953L14.0099 26.7538Z" fill="#8DC641"/>
  <path d="M66.3488 53.1952L118.689 26.7548V92.1115L66.3499 118.329V53.1952H66.3488Z" fill="#2BB673"/>
  <path d="M66.3488 0.315308L14.0079 26.7548L66.3488 53.1943L118.689 26.7548L66.3499 0.315308H66.3488Z" fill="#0F9548"/>
</svg>
