<svg xmlns="http://www.w3.org/2000/svg" width="1002.678" height="400" viewBox="0 0 1002.678 400.008"><path d="M571.43 360.564l26.175 13.224v-43.421l-26.175 13.106v17.09z" fill="#0e6939"/><path d="M597.605 304.038v26.328l26.176-13.107-26.176-13.221z" fill="#0f6b3a"/><path d="M597.605 330.366l26.176-13.107v43.416l-26.176 13.112v-43.421z" fill="#13a650"/><path d="M492.915 330.147l52.345 26.44v43.416l-52.345-26.441v-43.415z" fill="#8dc641"/><path d="M545.26 356.587l26.171-13.114v43.42l-26.17 13.11v-43.416z" fill="#2bb673"/><path d="M519.09 317.033l52.341 26.44-26.17 13.114-52.346-26.44 26.174-13.114z" fill="#13a650"/><path d="M519.09 232.668l39.26 19.666 13.081-6.554v97.694l-52.342-26.442v-84.364z" fill="#0e6939"/><path d="M571.43 245.78l26.175-13.112v97.697l-26.175 13.108V245.78zM506.01 160.757v65.36l52.34 26.217v-65.135l-52.34-26.442z" fill="#8dc641"/><path d="M558.35 187.199l52.341-26.441v65.358l-52.34 26.218v-65.135z" fill="#2bb673"/><path d="M558.35 134.318l-52.342 26.44 52.342 26.44 52.341-26.44-52.34-26.44z" fill="#0f9548"/><g fill="#fff"><path d="M658.59 207.699v56.04h-42.553v-44.367l-5.405.004v6.722l-13.056 6.5.021 71.465 18.437 9.278.003-27.723h42.552v56.043h21.4V207.699h-21.4zM724.683 303.254c-15.755 0-28.523-13.072-28.523-29.184 0-16.111 12.768-29.171 28.523-29.171 15.753 0 28.521 13.06 28.521 29.17 0 16.113-12.768 29.185-28.52 29.185zm0-72.944c-23.633 0-42.792 19.593-42.792 43.76 0 24.176 19.16 43.772 42.792 43.772 23.627 0 42.792-19.596 42.792-43.772 0-24.167-19.165-43.76-42.792-43.76z"/><path d="M980 230.31H795.276c-13.772 0-24.95 11.427-24.95 25.53 0 14.099 11.178 25.529 24.95 25.529h19.978c5.914 0 10.704 4.904 10.704 10.937 0 6.055-4.79 10.948-10.704 10.948h-53.49v14.588h53.49c13.787 0 24.96-11.44 24.96-25.536 0-14.1-11.173-25.527-24.96-25.527h-19.978c-5.89 0-10.694-4.901-10.694-10.938 0-6.044 4.803-10.942 10.694-10.942h86.306v72.943h14.266v-72.943h40.47c13.2-12.4 43.68-14.59 43.68-14.59zM62.2 303.254c-15.537 0-28.136-13.072-28.136-29.184 0-16.111 12.6-29.171 28.135-29.171 7.768 0 14.805 3.268 19.9 8.547l9.941-10.316c-7.633-7.92-18.189-12.82-29.84-12.82-23.306 0-42.2 19.593-42.2 43.76 0 24.176 18.894 43.772 42.2 43.772 11.651 0 22.207-4.908 29.84-12.828L82.1 294.71c-5.096 5.279-12.133 8.544-19.9 8.544zM135.346 274.07H110.03V244.9h25.317c7.772 0 14.065 6.53 14.065 14.586 0 8.056-6.293 14.584-14.065 14.584zm28.14-14.584c0-16.114-12.604-29.176-28.14-29.176H95.96v87.533h14.069v-29.181h20.97l16.243 29.18h16.243l-17.458-31.365c10.242-4.364 17.458-14.8 17.458-26.991zM326.656 274.07H301.34V244.9h25.316c7.777 0 14.074 6.53 14.074 14.586 0 8.054-6.297 14.584-14.074 14.584zm0-43.76h-95.65v72.945H183.18v-20.811h16.873v-14.581H183.18V244.9h42.194v-14.59h-56.26v87.533h112.534v-14.588h-36.582v-20.811h16.883v-14.581h-16.883V244.9h42.2v72.943h14.074v-29.181h25.316c15.545 0 28.134-13.063 28.134-29.176 0-16.114-12.589-29.176-28.134-29.176zM411.063 303.254h-36.578v-20.81h16.886v-14.582h-16.886v-22.963h36.578v-14.59h-50.642v87.533h50.642v-14.588zM474.98 277.537h-35.787V241.98h35.786c9.466 0 17.146 7.96 17.146 17.78 0 9.816-7.68 17.776-17.146 17.776zm44.11-1.092v-40.982c-4.373-5.31-11.4-11.174-36.99-11.174h-42.907c-11.513 0-24.968-2.363-24.968-2.363s1.934 8.84 1.934 20.055V342.27h23.034v-47.044H471.2s24.856 32.823 70.16 57.809c-36.283-44.804-38.634-62.453-38.634-62.453 6.446-3.121 12.664-8.664 16.364-14.137z"/></g></svg>