<svg fill="none" height="266" viewBox="0 0 132 266" width="132" xmlns="http://www.w3.org/2000/svg"><path d="m79.4286 226.557 26.1754 13.224v-43.421l-26.1754 13.106v17.09z" fill="#0e6939"/><path d="m105.603 170.032v26.328l26.176-13.107z" fill="#0f6b3a"/><path d="m105.603 196.359 26.176-13.106v43.415l-26.176 13.112z" fill="#13a650"/><path d="m.915192 196.14 52.343908 26.44v43.415l-52.343908-26.44z" fill="#8dc641"/><path d="m53.2592 222.58 26.1705-13.114v43.419l-26.1696 13.11v-43.415z" fill="#2bb673"/><path d="m27.0897 183.027 52.3399 26.439-26.1695 13.114-52.344908-26.44 26.173408-13.113z" fill="#13a650"/><path d="m27.0897 98.6633 39.2591 19.6657 13.0808-6.554v97.692l-52.341-26.441v-84.3627z" fill="#0e6939"/><path d="m79.4286 111.775 26.1744-13.1117v97.6947l-26.1744 13.108zm-65.4187-85.0212v65.3587l52.3389 26.2165v-65.1337z" fill="#8dc641"/><path d="m66.3488 53.1952 52.3402-26.4404v65.3567l-52.3391 26.2175v-65.1338z" fill="#2bb673"/><path d="m66.3488.315308-52.3409 26.439492 52.3409 26.4395 52.3402-26.4395-52.3391-26.439492z" fill="#0f9548"/></svg>