<?xml version="1.0" encoding="UTF-8" standalone="no"?>
<svg xmlns:dc="http://purl.org/dc/elements/1.1/" xmlns:cc="http://creativecommons.org/ns#" xmlns:rdf="http://www.w3.org/1999/02/22-rdf-syntax-ns#" xmlns:svg="http://www.w3.org/2000/svg" xmlns="http://www.w3.org/2000/svg" xmlns:sodipodi="http://sodipodi.sourceforge.net/DTD/sodipodi-0.dtd" xmlns:inkscape="http://www.inkscape.org/namespaces/inkscape" version="1.1" width="1002.6779" height="400" viewBox="0 0 1002.6779 400.00753" enable-background="new 0 0 960.00 265.69" xml:space="preserve" id="svg2" inkscape:version="0.91 r13725" sodipodi:docname="logo_creeperhost.svg"><metadata id="metadata50"><rdf:RDF><cc:Work rdf:about=""><dc:format>image/svg+xml</dc:format><dc:type rdf:resource="http://purl.org/dc/dcmitype/StillImage"/><dc:title/></cc:Work></rdf:RDF></metadata><defs id="defs48"/><sodipodi:namedview pagecolor="#ffffff" bordercolor="#666666" borderopacity="1" objecttolerance="10" gridtolerance="10" guidetolerance="10" inkscape:pageopacity="0" inkscape:pageshadow="2" inkscape:window-width="1920" inkscape:window-height="1027" id="namedview46" showgrid="false" inkscape:zoom="1" inkscape:cx="599.98061" inkscape:cy="183.86176" inkscape:window-x="1912" inkscape:window-y="-8" inkscape:window-maximized="1" inkscape:current-layer="svg2"/><g id="g4" transform="translate(20.000378,134.31753)"><path d="m 551.43,226.246 26.175,13.224 0,-43.421 -26.175,13.106 0,17.091 z" id="path6" inkscape:connector-curvature="0" style="fill:#0e6939;fill-opacity:1;stroke-linejoin:round"/><path d="m 577.605,169.72 0,26.328 26.176,-13.107 -26.176,-13.221 z" id="path8" inkscape:connector-curvature="0" style="fill:#0f6b3a;fill-opacity:1;stroke-linejoin:round"/><path d="m 577.605,196.048 26.176,-13.107 0,43.416 -26.176,13.112 0,-43.421 z" id="path10" inkscape:connector-curvature="0" style="fill:#13a650;fill-opacity:1;stroke-linejoin:round"/><path d="m 472.915,195.829 52.345,26.44 0,43.416 -52.345,-26.441 0,-43.415 z" id="path12" inkscape:connector-curvature="0" style="fill:#8dc641;fill-opacity:1;stroke-linejoin:round"/><path d="m 525.26,222.269 26.171,-13.114 0,43.421 -26.171,13.109 0,-43.416 z" id="path14" inkscape:connector-curvature="0" style="fill:#2bb673;fill-opacity:1;stroke-linejoin:round"/><path d="m 499.089,182.715 52.342,26.44 -26.171,13.114 -52.345,-26.44 26.174,-13.114 z" id="path16" inkscape:connector-curvature="0" style="fill:#13a650;fill-opacity:1;stroke-linejoin:round"/><path d="m 499.089,98.3502 39.26,19.6658 13.082,-6.554 0,97.694 -52.342,-26.442 0,-84.3638 z" id="path18" inkscape:connector-curvature="0" style="fill:#0e6939;fill-opacity:1;stroke-linejoin:round"/><path d="m 551.43,111.462 26.175,-13.1119 0,97.6969 -26.175,13.108 0,-97.693 z" id="path20" inkscape:connector-curvature="0" style="fill:#8dc641;fill-opacity:1;stroke-linejoin:round"/><path d="m 486.009,26.4399 0,65.36 52.341,26.2161 0,-65.1347 -52.341,-26.4414 z" id="path22" inkscape:connector-curvature="0" style="fill:#8dc641;fill-opacity:1;stroke-linejoin:round"/><path d="m 538.35,52.8814 52.341,-26.4413 0,65.3587 -52.341,26.2172 0,-65.1346 z" id="path24" inkscape:connector-curvature="0" style="fill:#2bb673;fill-opacity:1;stroke-linejoin:round"/><path d="M 538.35,0 486.008,26.4399 538.35,52.8813 590.691,26.4399 538.35,0 Z" id="path26" inkscape:connector-curvature="0" style="fill:#0f9548;fill-opacity:1;stroke-linejoin:round"/></g><g id="g28" transform="translate(20.000378,134.31753)"><path d="m 638.589,73.3814 0,56.0396 -42.552,0 0,-44.3663 -5.405,0.0033 0,6.7223 -13.056,6.5 0.021,71.4647 18.437,9.278 0.003,-27.723 42.552,0 0,56.043 21.399,0 0,-133.9616 -21.399,0 z" id="path30" inkscape:connector-curvature="0" style="fill:#ffffff;fill-opacity:1;stroke-linejoin:round"/><path d="m 704.683,168.936 c -15.755,0 -28.523,-13.072 -28.523,-29.184 0,-16.111 12.768,-29.171 28.523,-29.171 15.753,0 28.521,13.06 28.521,29.171 0,16.112 -12.768,29.184 -28.521,29.184 z m 0,-72.9439 c -23.633,0 -42.792,19.5929 -42.792,43.7599 0,24.176 19.159,43.772 42.792,43.772 23.627,0 42.792,-19.596 42.792,-43.772 0,-24.167 -19.165,-43.7599 -42.792,-43.7599 z" id="path32" inkscape:connector-curvature="0" style="fill:#ffffff;fill-opacity:1;stroke-linejoin:round"/><path d="m 959.999,95.9921 -184.722,0 c -13.772,0 -24.951,11.4269 -24.951,25.5309 0,14.098 11.179,25.528 24.951,25.528 l 19.978,0 c 5.914,0 10.704,4.904 10.704,10.937 0,6.055 -4.79,10.948 -10.704,10.948 l -53.49,0 0,14.588 53.49,0 c 13.787,0 24.96,-11.44 24.96,-25.536 0,-14.099 -11.173,-25.527 -24.96,-25.527 l -19.978,0 c -5.891,0 -10.694,-4.901 -10.694,-10.938 0,-6.044 4.803,-10.942 10.694,-10.942 l 86.306,0 0,72.943 14.266,0 0,-72.943 40.47,0 c 13.199,-12.3996 43.68,-14.5889 43.68,-14.5889 z" id="path34" inkscape:connector-curvature="0" style="fill:#ffffff;fill-opacity:1;stroke-linejoin:round"/><path d="m 42.1987,168.936 c -15.536,0 -28.1347,-13.072 -28.1347,-29.184 0,-16.111 12.5987,-29.171 28.1347,-29.171 7.768,0 14.8053,3.268 19.9,8.547 L 72.04,108.812 C 64.4067,100.892 53.8507,95.9921 42.1987,95.9921 18.8933,95.9921 0,115.585 0,139.752 c 0,24.176 18.8933,43.772 42.1987,43.772 11.652,0 22.208,-4.908 29.8413,-12.828 l -9.9413,-10.304 c -5.0947,5.279 -12.132,8.544 -19.9,8.544 z" id="path36" inkscape:connector-curvature="0" style="fill:#ffffff;fill-opacity:1;stroke-linejoin:round"/><path d="m 115.346,139.752 -25.3175,0 0,-29.17 25.3175,0 c 7.772,0 14.065,6.531 14.065,14.586 0,8.056 -6.293,14.584 -14.065,14.584 z m 28.139,-14.584 c 0,-16.114 -12.603,-29.1756 -28.139,-29.1756 l -39.3868,0 0,87.5326 14.0693,0 0,-29.181 20.9705,0 16.243,29.181 16.243,0 -17.458,-31.366 c 10.242,-4.364 17.458,-14.799 17.458,-26.991 z" id="path38" inkscape:connector-curvature="0" style="fill:#ffffff;fill-opacity:1;stroke-linejoin:round"/><path d="m 306.656,139.752 -25.316,0 0,-29.17 25.316,0 c 7.777,0 14.074,6.531 14.074,14.586 0,8.054 -6.297,14.584 -14.074,14.584 z m 0,-43.7596 -95.651,0 0,72.9446 -47.825,0 0,-20.811 16.873,0 0,-14.581 -16.873,0 0,-22.963 42.194,0 0,-14.5896 -56.26,0 0,87.5326 112.534,0 0,-14.588 -36.582,0 0,-20.811 16.883,0 0,-14.581 -16.883,0 0,-22.963 42.199,0 0,72.943 14.075,0 0,-29.181 25.316,0 c 15.545,0 28.134,-13.063 28.134,-29.176 0,-16.114 -12.589,-29.1756 -28.134,-29.1756 z" id="path40" inkscape:connector-curvature="0" style="fill:#ffffff;fill-opacity:1;stroke-linejoin:round"/><path d="m 391.063,168.936 -36.578,0 0,-20.809 16.886,0 0,-14.583 -16.886,0 0,-22.963 36.578,0 0,-14.5889 -50.642,0 0,87.5319 50.642,0 0,-14.588 z" id="path42" inkscape:connector-curvature="0" style="fill:#ffffff;fill-opacity:1;stroke-linejoin:round"/><path d="m 454.979,143.219 -35.786,0 0,-35.556 35.786,0 c 9.466,0 17.146,7.96 17.146,17.78 0,9.816 -7.68,17.776 -17.146,17.776 z m 44.11,-1.092 0,-40.982 c -4.372,-5.3091 -11.4,-11.1731 -36.99,-11.1731 l -42.906,0 c -11.513,0 -24.968,-2.3639 -24.968,-2.3639 0,0 1.934,8.84 1.934,20.055 l 0,100.289 23.034,0 0,-47.044 32.006,0 c 0,0 24.856,32.823 70.16,57.809 -36.283,-44.804 -38.634,-62.453 -38.634,-62.453 6.446,-3.121 12.664,-8.664 16.364,-14.137 z" id="path44" inkscape:connector-curvature="0" style="fill:#ffffff;fill-opacity:1;stroke-linejoin:round"/></g></svg>