<svg width="762" height="600" fill="none" xmlns="http://www.w3.org/2000/svg"><path fill-rule="evenodd" clip-rule="evenodd" d="M465.973 590.135v-9.791l6.036-.883c3.313-.516 10.674-1.325 16.268-1.988 5.595-.589 10.453-1.251 10.822-1.472.957-.589.883-349 0-349.589-.663-.442-5.595-1.104-25.029-3.313-3.092-.368-6.11-.662-6.846-.736-1.178 0-1.251-1.03-1.251-9.937v-9.938h70.815c74.497 0 100.482.589 114.984 2.576 19.729 2.65 35.114 7.067 50.131 14.428 28.782 14.208 43.358 39.457 43.284 75.012-.147 27.458-8.981 47.113-28.488 62.719-9.349 7.582-23.556 15.679-31.359 17.961-2.282.663-4.564 1.472-5.153 1.767-2.135 1.031-10.674 3.533-14.207 4.049-3.902.589-6.478 2.061-5.301 3.091.368.368 2.871 1.252 5.521 1.988 7.583 1.988 17.226 5.006 18.036 5.595.368.294 2.061.957 3.68 1.472 4.049 1.251 19.581 9.054 24.513 12.293 26.059 17.005 39.972 35.85 46.009 62.424 2.65 11.484 3.312 26.206 1.914 40.193-3.092 29.813-16.048 52.56-39.163 68.607-2.723 1.841-5.3 3.46-5.668 3.46-.368 0-1.104.368-1.619.884-.589.515-3.46 2.061-6.478 3.386-3.092 1.398-6.625 2.944-7.877 3.46-1.251.588-2.576 1.104-2.797 1.104-.295 0-1.62.441-2.871 1.03-3.681 1.693-18.035 5.006-30.697 7.067-10.6 1.693-32.684 2.209-111.818 2.577l-85.391.368v-9.864zm103.941-10.895a825.173 825.173 0 00-10.453-1.62l-5.521-.809-.22-91.06-.221-91.059 5.373-.442c10.601-.883 45.052-1.251 48.806-.515 1.987.441 6.993 1.178 11.042 1.619 7.214.81 16.195 2.945 20.685 4.859 1.252.515 2.724 1.03 3.166 1.03 1.03 0 5.962 2.135 12.219 5.3 16.931 8.54 31.728 23.115 38.058 37.396 6.699 15.238 8.687 25.102 8.613 44.094 0 30.991-6.993 52.118-22.157 66.767-17.594 16.931-46.892 25.323-88.925 25.323-8.539 0-17.741-.368-20.465-.883zm-14.869-206.117c-1.178-1.472-1.031-149.067.147-149.803 1.251-.736 47.333-1.03 54.326-.294 8.834.883 22.305 2.944 23.925 3.681.809.368 3.607 1.03 6.257 1.545 2.576.442 5.741 1.252 6.993 1.841 1.178.515 3.018 1.178 4.049 1.472 2.723.81 12.956 5.963 16.415 8.318 1.693 1.178 4.859 3.902 6.994 6.11 11.704 11.631 17.078 27.679 17.151 51.088 0 18.329-3.239 30.696-11.262 42.769-5.301 7.877-16.784 17.593-25.25 21.2-21.495 9.349-37.248 11.852-77.662 12.588-16.121.221-21.568.148-22.083-.515zM0 590.136v-9.864l3.46-.442c1.914-.221 9.422-1.104 16.636-1.914 7.215-.81 13.398-1.693 13.766-1.914.957-.589.957-349 0-349.589-.663-.441-4.196-.883-26.722-3.46L0 222.144v-19.655l109.095-.221c96.506-.221 110.125-.442 118.002-1.472 7.95-1.104 18.992-3.534 26.059-5.668 1.766-.516 2.65-.516 3.018 0 .221.441 1.693 6.478 3.239 13.471 1.472 6.92 3.386 15.459 4.122 18.918.81 3.387 4.049 18.33 7.288 33.126 3.239 14.723 6.551 29.814 7.361 33.494 3.902 17.299 5.227 24.145 4.932 24.955-.294.81-5.815 1.988-14.207 3.018l-3.828.442-3.681-7.656c-18.109-38.058-42.769-65.442-71.478-79.428-7.729-3.681-14.502-6.331-18.771-7.214-2.062-.442-4.344-1.105-5.153-1.473-1.767-.883-12.22-2.797-20.244-3.754-5.521-.589-37.027-.736-49.91-.147l-6.846.294.221 81.122.221 81.122 15.091.22c23.703.295 34.966-1.325 45.125-6.772 11.998-6.257 20.022-20.759 26.942-48.29l1.987-7.73 8.981-.22 8.981-.221-.221 72.73-.147 72.729-8.834.148-8.833.22-1.767-7.214c-2.65-11.042-7.288-24.145-10.968-31.285-7.141-13.987-15.901-20.023-33.641-23.336-6.773-1.251-11.116-1.472-25.986-1.472H88.336v85.318c-.074 50.057.22 85.538.662 85.759.368.221 5.08.883 10.453 1.472 5.374.589 12.735 1.546 16.269 1.988l6.478.883V600H0v-9.864z" fill="#fff"/><path fill-rule="evenodd" clip-rule="evenodd" d="M314.329 447.62c0-5.3.221-9.643.516-9.643.294 0 4.343-.516 9.054-1.031 4.638-.589 11.999-1.399 16.342-1.914l7.95-.957V257.183c0-126.026-.294-176.966-.809-177.334-.442-.295-3.387-.148-6.478.294-3.092.442-8.392 1.178-11.778 1.62-3.313.441-8.613 1.62-11.778 2.576-5.301 1.767-16.269 6.699-17.005 7.73-.221.294-1.546 1.104-2.945 1.766-6.183 3.166-16.783 12.882-24.513 22.379-8.686 10.747-20.391 31.432-29.592 52.191l-2.061 4.638-3.755-.074c-2.061-.073-5.447-.294-7.435-.589-4.416-.589-4.269.074-1.987-12.956.81-4.858 2.208-12.735 3.018-17.52.81-4.784 2.208-12.44 3.018-17.078-14.87 85.391 50.425-290.109 5.889-33.862.81-4.711 2.061-12.22 2.871-16.784.81-4.564 1.988-11.262 2.576-14.796.589-3.607 1.178-6.699 1.326-6.772.147-.148 2.723.368 5.741 1.178 11.042 2.87 23.409 5.005 33.494 5.741 13.472 1.031 165.262 1.031 178.512.074 10.821-.81 21.716-2.65 31.948-5.521 3.607-.957 6.846-1.546 7.141-1.251.294.294 1.03 3.68 1.693 7.582.662 3.828 1.767 10.6 2.576 15.09.736 4.417 2.282 13.03 3.313 19.14 1.104 6.036 2.576 14.649 3.386 19.139 3.681 21.127 4.491 25.986 5.889 34.01a893.149 893.149 0 012.65 15.237c.589 3.608 1.252 6.846 1.399 7.141.662 1.031-1.546 1.693-8.392 2.503-5.963.736-6.92.662-7.435-.368-.294-.589-2.356-5.08-4.49-9.938-11.778-26.206-23.998-44.683-38.942-58.743-11.999-11.263-29.519-19.95-44.241-21.863-3.239-.442-8.539-1.105-11.852-1.546-3.386-.442-6.257-.516-6.625-.147-.368.368-.515 76.999-.442 177.26l.221 176.671 6.625.81c3.607.442 9.938 1.178 13.987 1.62 4.048.515 8.539 1.03 10.085 1.325l2.797.368V457.19H314.329v-9.57z" fill="#fff"/></svg>