<svg xmlns="http://www.w3.org/2000/svg" viewBox="0 0 251 150.66"><defs><style>.cls-1{fill:none;stroke:#fff;stroke-miterlimit:10;stroke-width:10px;}.cls-2{font-size:27px;font-family:Couture-Bold, Couture;font-weight:700;letter-spacing:0.04em;}.cls-2,.cls-3{fill:#fff;}</style></defs><title>Asset 1</title><g id="Layer_2" data-name="Layer 2"><g id="Layer_1-2" data-name="Layer 1"><g id="Default_Black" data-name="Default Black"><rect class="cls-1" x="7.5" y="5" width="237" height="111"/><text class="cls-2" transform="translate(1.03 145.51)">FEED THE BEAST</text><path class="cls-3" d="M68.5,74.94V85h-11V33h38V43h-27V54h23V64h-23Z"/><path class="cls-3" d="M122.5,43h-16V34h43v9h-16V85h-11Z"/><path class="cls-3" d="M160.5,33h24c9.71,0,16.29,3.14,16.29,12.64,0,5.15-2.36,8.43-6.93,10.65,6.28,1.78,9.35,6.57,9.35,12.92,0,10.36-8.78,14.79-18,14.79H160.5Zm11,21h11.42c4,0,6.9-1.8,6.9-6.11,0-4.81-3.73-5.89-7.76-5.89H171.5Zm0,22h12c4.36,0,8.29-1.43,8.29-6.71S188.57,62,183.71,62H171.5Z"/></g></g></g></svg>