<svg fill="none" height="44" viewBox="0 0 205 44" width="205" xmlns="http://www.w3.org/2000/svg"><path d="m205 19.7987v-3.6053h-4.477v-5.6047l-.151.0464-4.205 1.2866-.083.0252v4.2467h-6.637v-2.3658c0-1.1016.246-1.9446.732-2.5068.482-.5554 1.171-.8378 2.051-.8378.632 0 1.286.1489 1.945.4426l.165.0738v-3.79684l-.077-.02855c-.615-.22092-1.451-.33217-2.487-.33217-1.306 0-2.492.28418-3.527.84737-1.035.56399-1.85 1.36912-2.42 2.39279-.569 1.0225-.857 2.2034-.857 3.5102v2.601h-3.118v3.6053h3.118v15.1882h4.475v-15.1882h6.637v9.6518c0 3.9751 1.875 5.9895 5.573 5.9895.607 0 1.247-.0712 1.9-.2106.665-.1432 1.117-.2862 1.384-.4389l.059-.0349v-3.6385l-.182.1204c-.243.1618-.546.294-.9.3924-.356.1002-.654.1503-.884.1503-.866 0-1.507-.2334-1.905-.694-.402-.4649-.606-1.2777-.606-2.4148v-8.8727zm-33.14 11.9821c-1.624 0-2.905-.5386-3.807-1.5995-.908-1.0663-1.368-2.5866-1.368-4.5181 0-1.9928.46-3.5525 1.368-4.6376.903-1.078 2.172-1.6251 3.771-1.6251 1.552 0 2.787.5225 3.672 1.5539.889 1.0368 1.34 2.584 1.34 4.6 0 2.0407-.424 3.6084-1.261 4.657-.831 1.0407-2.081 1.5694-3.715 1.5694zm.199-16.0401c-3.099 0-5.56.9081-7.315 2.699-1.754 1.7911-2.643 4.2697-2.643 7.3677 0 2.9425.868 5.3093 2.58 7.0336 1.712 1.7249 4.042 2.5986 6.925 2.5986 3.004 0 5.416-.9207 7.171-2.7365 1.754-1.8137 2.642-4.2689 2.642-7.2945 0-2.9885-.834-5.3729-2.479-7.0857-1.646-1.7136-3.962-2.5822-6.881-2.5822zm-17.174 0c-2.108 0-3.851.5392-5.183 1.6023-1.341 1.0695-2.02 2.4721-2.02 4.1694 0 .8823.146 1.666.435 2.3308.291.6669.74 1.2541 1.337 1.7469.593.4888 1.508 1.0008 2.721 1.5218 1.019.4194 1.779.7742 2.262 1.0538.472.274.807.5495.996.8178.184.2626.277.6219.277 1.0653 0 1.2626-.945 1.877-2.891 1.877-.722 0-1.545-.1507-2.447-.4478-.895-.2926-1.74-.721-2.505-1.2704l-.186-.1332v4.3086l.068.0317c.634.2924 1.432.5388 2.373.7328.939.1941 1.792.2929 2.534.2929 2.287 0 4.129-.5418 5.473-1.6113 1.353-1.0768 2.039-2.5125 2.039-4.2685 0-1.2668-.369-2.3532-1.097-3.2293-.722-.869-1.976-1.6667-3.725-2.3719-1.393-.5593-2.286-1.0235-2.654-1.3799-.355-.3442-.535-.8311-.535-1.4476 0-.5465.222-.9844.679-1.339.46-.3563 1.101-.5376 1.904-.5376.746 0 1.509.1178 2.268.3486.758.2309 1.424.54 1.979.9182l.183.1249v-4.0871l-.07-.0301c-.513-.22-1.189-.4081-2.01-.5608-.818-.1517-1.56-.2283-2.205-.2283zm-18.87 16.0401c-1.624 0-2.905-.5386-3.807-1.5995-.909-1.0663-1.368-2.5862-1.368-4.5181 0-1.9928.46-3.5525 1.369-4.6376.902-1.078 2.17-1.6251 3.77-1.6251 1.551 0 2.786.5225 3.671 1.5539.89 1.0368 1.341 2.584 1.341 4.6 0 2.0407-.425 3.6084-1.261 4.657-.831 1.0407-2.081 1.5694-3.715 1.5694zm.199-16.0401c-3.099 0-5.561.9081-7.315 2.699-1.754 1.7911-2.644 4.2697-2.644 7.3677 0 2.9437.869 5.3093 2.581 7.0336 1.712 1.7249 4.042 2.5986 6.925 2.5986 3.004 0 5.417-.9207 7.171-2.7365 1.754-1.8137 2.643-4.2689 2.643-7.2945 0-2.9885-.835-5.3729-2.48-7.0857-1.647-1.7136-3.962-2.5822-6.881-2.5822zm-16.752 3.7074v-3.2547h-4.42v18.7931h4.42v-9.6134c0-1.6346.371-2.9776 1.102-3.9919.722-1.0023 1.684-1.5101 2.859-1.5101.398 0 .845.0656 1.329.1955.48.1291.827.2693 1.031.4168l.186.1347v-4.4568l-.072-.0307c-.411-.1749-.994-.2632-1.731-.2632-1.11 0-2.105.357-2.956 1.0598-.748.6177-1.288 1.4647-1.701 2.5209zm-12.337-3.7074c-2.028 0-3.837.4349-5.376 1.2922-1.542.8592-2.7341 2.086-3.5454 3.6459-.8077 1.5561-1.2178 3.3738-1.2178 5.4009 0 1.7756.3976 3.4051 1.1835 4.8413.7863 1.4385 1.8987 2.5639 3.3077 3.3444 1.407.7796 3.033 1.1748 4.833 1.1748 2.101 0 3.895-.42 5.333-1.2484l.058-.0333v-4.05l-.186.1356c-.651.4746-1.379.8534-2.163 1.1262-.781.2727-1.493.4105-2.118.4105-1.734 0-3.127-.5427-4.138-1.6128-1.013-1.0715-1.526-2.576-1.526-4.4693 0-1.9051.535-3.4483 1.591-4.587 1.052-1.1353 2.447-1.7112 4.146-1.7112 1.453 0 2.869.492 4.209 1.4637l.185.1346v-4.2674l-.06-.0337c-.504-.2822-1.192-.5152-2.045-.6919-.85-.1763-1.681-.2651-2.471-.2651zm-13.1838.4529h-4.4207v18.7929h4.4207zm-2.1652-8.00584c-.7275 0-1.3621.24768-1.8835.7385-.5235.4922-.789 1.11194-.789 1.84324 0 .7199.2623 1.3283.7809 1.8074.5152.4777 1.1518.7199 1.8918.7199.7399 0 1.3789-.2422 1.9002-.7191.5248-.4799.7909-1.0881.7909-1.8082 0-.7058-.259-1.31912-.7693-1.82341-.5098-.50331-1.1567-.75833-1.922-.75833zm-11.0298 6.61934v20.1794h4.5115v-26.22345h-6.2441l-7.9367 19.47795-7.7021-19.47795h-6.4983v26.22325h4.2396v-20.1812h.1455l8.1332 20.1814h3.1995l8.0063-20.1794z" fill="#fff"/><path d="m20.7961 20.7961h-20.7961v-20.7961h20.7961z" fill="#f1511b"/><path d="m43.7572 20.7961h-20.7958v-20.7961h20.7958z" fill="#80cc28"/><path d="m20.7955 43.7655h-20.7955v-20.7959h20.7955z" fill="#00adef"/><path d="m43.7572 43.7655h-20.7958v-20.7959h20.7958z" fill="#fbbc09"/></svg>