<svg fill="none" height="35" viewBox="0 0 231 35" width="231" xmlns="http://www.w3.org/2000/svg"><g fill="#fff"><path d="m120.252 14.8765v17.7692c0 .9129.74 1.653 1.653 1.653h4.959c.913 0 1.653-.7371 1.653-1.65v-17.359c0-4.9588 4.132-6.19853 6.199-6.19853h9.091c.913 0 1.653.74006 1.653 1.65293v5.3721c0 .9129-.74 1.653-1.653 1.653h-8.265c-.913 0-1.653.74-1.653 1.6529v4.9589c0 .9129.74 1.6529 1.653 1.6529h8.265c.913 0 1.653.7401 1.653 1.653v4.9588c0 .9129.74 1.653 1.653 1.653h4.959c.913 0 1.653-.7401 1.653-1.653v-21.9016c0-.91287-.74-1.65293-1.653-1.65293h-3.72c-2.314 0-2.892-1.92844-2.892-2.89266v-3.71914c0-.9129-.316-1.652954-1.229-1.652954h-10.342c-11.24 0-13.774 9.366684-13.637 14.050084z"/><path d="m159.097 2.06616v30.57964c0 .9129.74 1.6529 1.653 1.6529h4.958c.913 0 1.653-.74 1.653-1.6529v-21.9016c0-.91294.74-1.653 1.653-1.653h14.05c.913 0 1.653.74006 1.653 1.653v21.9016c0 .9129.74 1.6529 1.653 1.6529h4.546c.913 0 1.653-.74 1.653-1.6529v-21.9016c0-.91294-.74-1.653-1.653-1.653h-3.719c-2.314 0-2.893-2.20393-2.893-3.3059v-3.71914c0-.9129-.74-1.652952-1.653-1.652952h-21.901c-.913 0-1.653.740052-1.653 1.652952z"/><path d="m231 2.06616v4.95885c0 .9129-.74 1.65296-1.653 1.65296h-17.356c-2.893 0-7.025 2.47943-7.025 8.67803 0 6.1985 4.132 8.2647 6.612 8.2647 1.841 0 2.637-1.1867 2.853-1.9079.031-.1043.039-.2131.039-.3219v-3.9687c0-.9129.74-1.653 1.653-1.653h13.224c.913 0 1.653.7401 1.653 1.653v13.6368c0 .9129-.74 1.653-1.653 1.653h-4.959c-.913 0-1.653-.7401-1.653-1.653v-5.3721c0-.9129-.74-1.6529-1.653-1.6529h-3.719c-.913 0-1.653.74-1.653 1.6529v5.3721c0 .9129-.74 1.653-1.653 1.653h-1.929c-.091 0-.179-.0068-.269-.0227-5-.8885-14.745-5.7076-14.745-18.1598 0-12.56245 9.918-15.978546 14.877-16.116292h17.356c.913 0 1.653.740052 1.653 1.652952z"/><path clip-rule="evenodd" d="m60.3326 34.712c9.5854 0 17.3559-7.7706 17.3559-17.356 0-9.58546-7.7705-17.356-17.3559-17.356-9.5855 0-17.356 7.77054-17.356 17.356 0 9.5854 7.7705 17.356 17.356 17.356zm.0002-9.4669c4.357 0 7.8891-3.532 7.8891-7.8891 0-4.357-3.5321-7.88906-7.8891-7.88906s-7.8891 3.53206-7.8891 7.88906c0 4.3571 3.5321 7.8891 7.8891 7.8891z" fill-rule="evenodd"/><path d="m0 1.65295v31.40605c0 .9129.740052 1.653 1.65295 1.653h4.95886c.9129 0 1.65295-.7401 1.65295-1.653v-23.14129c0-.41324 1.44404-1.23971 3.71914-1.23971s3.7191.82647 3.7191 1.23971v14.05009c0 .9129.7401 1.653 1.653 1.653h4.5456c.9129 0 1.653-.7401 1.653-1.653v-14.05009c0-.41324 1.0522-1.23971 3.3059-1.23971 2.2536 0 2.8926.82647 2.8926 1.23971l.3862 23.16889c.015.902.7505 1.6254 1.6527 1.6254h4.9862c.9129 0 1.6529-.7401 1.6529-1.653v-22.7281c0-.91285-.7399-1.6529-1.6528-1.6529h-4.1325c-2.3141 0-2.8927-1.65296-2.8927-2.47943v-4.54562c0-.912898-.74-1.65295-1.6529-1.65295h-26.44725c-.912898 0-1.65295.740047-1.65295 1.65295z"/><path d="m87.6064 17.356h-4.4302c-.7879 0-1.4722.5571-1.493 1.3448-.066 2.5084.7215 6.6771 4.2703 10.2259 4.2977 4.2976 8.4025 5.372 9.9177 5.372h8.9588c.963 0 1.721-.821 1.757-1.7832.07-1.8993.466-4.2699 1.681-5.2418 1.247-.9976 3.827-1.4308 5.788-1.5833.91-.0709 1.651-.8097 1.651-1.7226v-21.90161c0-.9129-.74-1.652952-1.653-1.652952h-22.3152c-.9129 0-1.6529.740052-1.6529 1.652952v4.54562c0 .9129.74 1.65295 1.6529 1.65295h14.0502c.913 0 1.653.74005 1.653 1.65295v14.87659c0 .9129-.738 1.6529-1.651 1.6529h-9.9198c-4.4443 0-6.088-4.2788-6.4997-7.4437-.1178-.9052-.8522-1.6475-1.7651-1.6475z"/></g></svg>